<svg xmlns="http://www.w3.org/2000/svg" xmlns:xlink="http://www.w3.org/1999/xlink" id="processonSvg1000" viewBox="223.0 61.0 894.0 580.0" width="894.0" height="580.0"><defs id="ProcessOnDefs1001"><marker id="ProcessOnMarker1031" markerUnits="userSpaceOnUse" orient="auto" markerWidth="14.118033988749895" markerHeight="9.174454630060925" viewBox="-0.5 -0.6881909602355868 14.118033988749895 9.174454630060925" refX="-0.5" refY="3.8990363547948754"><path id="ProcessOnPath1032" d="M12.0 3.8990363547948754L0.0 7.798072709589751V0.0Z" stroke="#000000" stroke-width="1.0" fill="#000000" transform="matrix(1.0,0.0,0.0,1.0,0.0,0.0)"/></marker><marker id="ProcessOnMarker1039" markerUnits="userSpaceOnUse" orient="auto" markerWidth="14.118033988749895" markerHeight="9.174454630060925" viewBox="-0.5 -0.6881909602355868 14.118033988749895 9.174454630060925" refX="-0.5" refY="3.8990363547948754"><path id="ProcessOnPath1040" d="M12.0 3.8990363547948754L0.0 7.798072709589751V0.0Z" stroke="#000000" stroke-width="1.0" fill="#000000" transform="matrix(1.0,0.0,0.0,1.0,0.0,0.0)"/></marker><marker id="ProcessOnMarker1051" markerUnits="userSpaceOnUse" orient="auto" markerWidth="14.118033988749895" markerHeight="9.174454630060925" viewBox="-0.5 -0.6881909602355868 14.118033988749895 9.174454630060925" refX="-0.5" refY="3.8990363547948754"><path id="ProcessOnPath1052" d="M12.0 3.8990363547948754L0.0 7.798072709589751V0.0Z" stroke="#000000" stroke-width="1.0" fill="#000000" transform="matrix(1.0,0.0,0.0,1.0,0.0,0.0)"/></marker><marker id="ProcessOnMarker1060" markerUnits="userSpaceOnUse" orient="auto" markerWidth="14.118033988749895" markerHeight="9.174454630060925" viewBox="-0.5 -0.6881909602355868 14.118033988749895 9.174454630060925" refX="-0.5" refY="3.8990363547948754"><path id="ProcessOnPath1061" d="M12.0 3.8990363547948754L0.0 7.798072709589751V0.0Z" stroke="#000000" stroke-width="1.0" fill="#000000" transform="matrix(1.0,0.0,0.0,1.0,0.0,0.0)"/></marker><marker id="ProcessOnMarker1069" markerUnits="userSpaceOnUse" orient="auto" markerWidth="14.118033988749895" markerHeight="9.174454630060925" viewBox="-0.5 -0.6881909602355868 14.118033988749895 9.174454630060925" refX="-0.5" refY="3.8990363547948754"><path id="ProcessOnPath1070" d="M12.0 3.8990363547948754L0.0 7.798072709589751V0.0Z" stroke="#000000" stroke-width="1.0" fill="#000000" transform="matrix(1.0,0.0,0.0,1.0,0.0,0.0)"/></marker><marker id="ProcessOnMarker1082" markerUnits="userSpaceOnUse" orient="auto" markerWidth="14.118033988749895" markerHeight="9.174454630060925" viewBox="-0.5 -0.6881909602355868 14.118033988749895 9.174454630060925" refX="-0.5" refY="3.8990363547948754"><path id="ProcessOnPath1083" d="M12.0 3.8990363547948754L0.0 7.798072709589751V0.0Z" stroke="#000000" stroke-width="1.0" fill="#000000" transform="matrix(1.0,0.0,0.0,1.0,0.0,0.0)"/></marker><marker id="ProcessOnMarker1098" markerUnits="userSpaceOnUse" orient="auto" markerWidth="14.118033988749895" markerHeight="9.174454630060925" viewBox="-0.5 -0.6881909602355868 14.118033988749895 9.174454630060925" refX="-0.5" refY="3.8990363547948754"><path id="ProcessOnPath1099" d="M12.0 3.8990363547948754L0.0 7.798072709589751V0.0Z" stroke="#000000" stroke-width="1.0" fill="#000000" transform="matrix(1.0,0.0,0.0,1.0,0.0,0.0)"/></marker><marker id="ProcessOnMarker1105" markerUnits="userSpaceOnUse" orient="auto" markerWidth="14.118033988749895" markerHeight="9.174454630060925" viewBox="-0.5 -0.6881909602355868 14.118033988749895 9.174454630060925" refX="-0.5" refY="3.8990363547948754"><path id="ProcessOnPath1106" d="M12.0 3.8990363547948754L0.0 7.798072709589751V0.0Z" stroke="#000000" stroke-width="1.0" fill="#000000" transform="matrix(1.0,0.0,0.0,1.0,0.0,0.0)"/></marker><marker id="ProcessOnMarker1109" markerUnits="userSpaceOnUse" orient="auto" markerWidth="16.23606797749979" markerHeight="10.550836550532098" viewBox="-1.0 -1.3763819204711736 16.23606797749979 10.550836550532098" refX="-1.0" refY="3.8990363547948754"><path id="ProcessOnPath1110" d="M12.0 3.8990363547948754L0.0 7.798072709589751V0.0Z" stroke="#323232" stroke-width="2.0" fill="#323232" transform="matrix(1.0,0.0,0.0,1.0,0.0,0.0)"/></marker><marker id="ProcessOnMarker1116" markerUnits="userSpaceOnUse" orient="auto" markerWidth="16.23606797749979" markerHeight="10.550836550532098" viewBox="-1.0 -1.3763819204711736 16.23606797749979 10.550836550532098" refX="-1.0" refY="3.8990363547948754"><path id="ProcessOnPath1117" d="M12.0 3.8990363547948754L0.0 7.798072709589751V0.0Z" stroke="#323232" stroke-width="2.0" fill="#323232" transform="matrix(1.0,0.0,0.0,1.0,0.0,0.0)"/></marker><marker id="ProcessOnMarker1125" markerUnits="userSpaceOnUse" orient="auto" markerWidth="16.23606797749979" markerHeight="10.550836550532098" viewBox="-1.0 -1.3763819204711736 16.23606797749979 10.550836550532098" refX="-1.0" refY="3.8990363547948754"><path id="ProcessOnPath1126" d="M12.0 3.8990363547948754L0.0 7.798072709589751V0.0Z" stroke="#323232" stroke-width="2.0" fill="#323232" transform="matrix(1.0,0.0,0.0,1.0,0.0,0.0)"/></marker></defs><g id="ProcessOnG1002"><path id="ProcessOnPath1003" d="M223.0 61.0H1117.0V641.0H223.0V61.0Z" fill="none"/><g id="ProcessOnG1004"><g id="ProcessOnG1005" transform="matrix(1.0,0.0,0.0,1.0,243.0,81.0)" opacity="1.0"><path id="ProcessOnPath1006" d="M0.0 0.0L854.0 0.0L854.0 540.0L0.0 540.0Z" stroke="#323232" stroke-width="2.0" stroke-dasharray="none" opacity="1.0" fill="none"/><path id="ProcessOnPath1007" d="M0.0 0.0L854.0 0.0L854.0 40.0L0.0 40.0Z" stroke="#323232" stroke-width="2.0" stroke-dasharray="none" opacity="1.0" fill="#ffffff"/><g id="ProcessOnG1008" transform="matrix(1.0,0.0,0.0,1.0,10.0,10.0)"><text id="ProcessOnText1009" fill="#000000" font-weight="normal" font-style="normal" text-decoration="blink" font-family="微软雅黑" text-anchor="middle" font-size="16" x="417.0" y="16.4">拉勾网整站爬虫</text></g></g><g id="ProcessOnG1010" transform="matrix(1.0,0.0,0.0,1.0,243.0,121.0)" opacity="1.0"><path id="ProcessOnPath1011" d="M0.0 0.0L229.0 0.0L229.0 500.0L0.0 500.0Z" stroke="#323232" stroke-width="2.0" stroke-dasharray="none" opacity="1.0" fill="none"/><path id="ProcessOnPath1012" d="M0.0 0.0L229.0 0.0L229.0 30.0L0.0 30.0Z" stroke="#323232" stroke-width="2.0" stroke-dasharray="none" opacity="1.0" fill="#ffffff"/><g id="ProcessOnG1013" transform="matrix(1.0,0.0,0.0,1.0,10.0,6.875)"><text id="ProcessOnText1014" fill="#000000" font-weight="normal" font-style="normal" text-decoration="blink" font-family="微软雅黑" text-anchor="middle" font-size="13" x="104.5" y="13.325">spider</text></g></g><g id="ProcessOnG1015" transform="matrix(1.0,0.0,0.0,1.0,472.0,121.0)" opacity="1.0"><path id="ProcessOnPath1016" d="M0.0 0.0L222.0 0.0L222.0 500.0L0.0 500.0Z" stroke="#323232" stroke-width="2.0" stroke-dasharray="none" opacity="1.0" fill="none"/><path id="ProcessOnPath1017" d="M0.0 0.0L222.0 0.0L222.0 30.0L0.0 30.0Z" stroke="#323232" stroke-width="2.0" stroke-dasharray="none" opacity="1.0" fill="#ffffff"/><g id="ProcessOnG1018" transform="matrix(1.0,0.0,0.0,1.0,10.0,6.875)"><text id="ProcessOnText1019" fill="#000000" font-weight="normal" font-style="normal" text-decoration="blink" font-family="微软雅黑" text-anchor="middle" font-size="13" x="101.0" y="13.325">代理IP池</text></g></g><g id="ProcessOnG1020" transform="matrix(1.0,0.0,0.0,1.0,694.0,121.0)" opacity="1.0"><path id="ProcessOnPath1021" d="M0.0 0.0L229.0 0.0L229.0 500.0L0.0 500.0Z" stroke="#323232" stroke-width="2.0" stroke-dasharray="none" opacity="1.0" fill="none"/><path id="ProcessOnPath1022" d="M0.0 0.0L229.0 0.0L229.0 30.0L0.0 30.0Z" stroke="#323232" stroke-width="2.0" stroke-dasharray="none" opacity="1.0" fill="#ffffff"/><g id="ProcessOnG1023" transform="matrix(1.0,0.0,0.0,1.0,10.0,6.875)"><text id="ProcessOnText1024" fill="#000000" font-weight="normal" font-style="normal" text-decoration="blink" font-family="微软雅黑" text-anchor="middle" font-size="13" x="104.5" y="13.325">middlewares</text></g></g><g id="ProcessOnG1025" transform="matrix(1.0,0.0,0.0,1.0,304.0,180.14236111111111)" opacity="1.0"><path id="ProcessOnPath1026" d="M12.905092592592593 0.0L69.0949074074074 0.0C86.3016975308642 0.0 86.3016975308642 38.71527777777778 69.0949074074074 38.71527777777778L12.905092592592593 38.71527777777778C-4.301697530864198 38.71527777777778 -4.301697530864198 0.0 12.905092592592593 0.0Z" stroke="#4d9900" stroke-width="2.0" stroke-dasharray="none" opacity="1.0" fill="#4d9900"/><g id="ProcessOnG1027" transform="matrix(1.0,0.0,0.0,1.0,10.0,11.23263888888889)"><text id="ProcessOnText1028" fill="#000000" font-weight="normal" font-style="normal" text-decoration="blink" font-family="微软雅黑" text-anchor="middle" font-size="13" x="31.0" y="13.325">初始化</text></g></g><g id="ProcessOnG1029"><path id="ProcessOnPath1030" d="M345.0 218.85763888888889L345.0 268.8229120042589L345.0 268.8229120042589L345.0 305.170151130879" stroke="#000000" stroke-width="1.0" stroke-dasharray="none" fill="none" marker-end="url(#ProcessOnMarker1031)"/></g><g id="ProcessOnG1033" transform="matrix(1.0,0.0,0.0,1.0,287.49305725097656,318.7881851196289)" opacity="1.0"><path id="ProcessOnPath1034" d="M0.0 0.0L115.01388549804688 0.0L115.01388549804688 58.211814880371094L0.0 58.211814880371094Z" stroke="#99ccff" stroke-width="2.0" stroke-dasharray="none" opacity="1.0" fill="#99ccff"/><g id="ProcessOnG1035" transform="matrix(1.0,0.0,0.0,1.0,10.0,20.980907440185547)"><text id="ProcessOnText1036" fill="#000000" font-weight="normal" font-style="normal" text-decoration="blink" font-family="微软雅黑" text-anchor="middle" font-size="13" x="47.50694274902344" y="13.325">start_requests</text></g></g><g id="ProcessOnG1037"><path id="ProcessOnPath1038" d="M345.0 377.0L345.0 430.75L345.0 430.75L345.0 470.8819660112501" stroke="#000000" stroke-width="1.0" stroke-dasharray="none" fill="none" marker-end="url(#ProcessOnMarker1039)"/></g><g id="ProcessOnG1041" transform="matrix(1.0,0.0,0.0,1.0,304.05,484.5)" opacity="1.0"><path id="ProcessOnPath1042" d="M0.0 28.25L40.94999999999999 0.0L81.89999999999998 28.25L40.94999999999999 56.5L0.0 28.25Z" stroke="#ff8000" stroke-width="2.0" stroke-dasharray="none" opacity="1.0" fill="#ff8000"/><g id="ProcessOnG1043" transform="matrix(1.0,0.0,0.0,1.0,10.0,20.125)"><text id="ProcessOnText1044" fill="#000000" font-weight="normal" font-style="normal" text-decoration="blink" font-family="微软雅黑" text-anchor="middle" font-size="13" x="30.94999999999999" y="13.325">request</text></g></g><g id="ProcessOnG1045" transform="matrix(1.0,0.0,0.0,1.0,516.0138854980469,212.7881851196289)" opacity="1.0"><path id="ProcessOnPath1046" d="M0.0 41.10590744018555L48.11805725097656 0.0L96.23611450195312 41.10590744018555L48.11805725097656 82.2118148803711L0.0 41.10590744018555Z" stroke="#ff8000" stroke-width="2.0" stroke-dasharray="none" opacity="1.0" fill="#ff8000"/><g id="ProcessOnG1047" transform="matrix(1.0,0.0,0.0,1.0,10.0,32.98090744018555)"><text id="ProcessOnText1048" fill="#000000" font-weight="normal" font-style="normal" text-decoration="blink" font-family="微软雅黑" text-anchor="middle" font-size="13" x="38.11805725097656" y="13.325">添加代理</text></g></g><g id="ProcessOnG1049"><path id="ProcessOnPath1050" d="M385.94999999999993 512.75L441.5409713745117 512.75L441.5409713745117 384.0L483.5139087602735 384.0" stroke="#000000" stroke-width="1.0" stroke-dasharray="none" fill="none" marker-end="url(#ProcessOnMarker1051)"/></g><g id="ProcessOnG1053" transform="matrix(1.0,0.0,0.0,1.0,497.13194274902344,350.44965277777777)" opacity="1.0"><path id="ProcessOnPath1054" d="M0.0 0.0L134.0 0.0L134.0 67.10069444444446L0.0 67.10069444444446Z" stroke="#99ccff" stroke-width="2.0" stroke-dasharray="none" opacity="1.0" fill="#99ccff"/><g id="ProcessOnG1055" transform="matrix(1.0,0.0,0.0,1.0,10.0,17.30034722222223)"><text id="ProcessOnText1056" fill="#000000" font-weight="normal" font-style="normal" text-decoration="blink" font-family="微软雅黑" text-anchor="middle" font-size="13" x="57.0" y="13.325">添加随机</text><text id="ProcessOnText1057" fill="#000000" font-weight="normal" font-style="normal" text-decoration="blink" font-family="微软雅黑" text-anchor="middle" font-size="13" x="57.0" y="29.575">user-agent</text></g></g><g id="ProcessOnG1058"><path id="ProcessOnPath1059" d="M564.1319427490234 350.44965277777777L564.1319427490234 322.7248263888889L564.1319427490234 322.7248263888889L564.1319427490234 308.6180339887499" stroke="#000000" stroke-width="1.0" stroke-dasharray="none" fill="none" marker-end="url(#ProcessOnMarker1060)"/></g><g id="ProcessOnG1062" transform="matrix(1.0,0.0,0.0,1.0,505.1909713745117,489.0)" opacity="1.0"><path id="ProcessOnPath1063" d="M0.0 0.0L117.88194274902344 0.0L117.88194274902344 76.7881851196289L0.0 76.7881851196289Z" stroke="#99ccff" stroke-width="2.0" stroke-dasharray="none" opacity="1.0" fill="#99ccff"/><g id="ProcessOnG1064" transform="matrix(1.0,0.0,0.0,1.0,10.0,22.144092559814453)"><text id="ProcessOnText1065" fill="#000000" font-weight="normal" font-style="normal" text-decoration="blink" font-family="微软雅黑" text-anchor="middle" font-size="13" x="48.94097137451172" y="13.325">丢弃该代理IP</text><text id="ProcessOnText1066" fill="#000000" font-weight="normal" font-style="normal" text-decoration="blink" font-family="微软雅黑" text-anchor="middle" font-size="13" x="48.94097137451172" y="29.575">重新请求</text></g></g><g id="ProcessOnG1067"><path id="ProcessOnPath1068" d="M564.1319427490234 212.7881851196289L564.1319427490234 182.7881851196289L714.5625 182.7881851196289L714.5625 216.53645367092557L730.9444660112501 216.53645367092557" stroke="#000000" stroke-width="1.0" stroke-dasharray="none" fill="none" marker-end="url(#ProcessOnMarker1069)"/></g><g id="ProcessOnG1071" transform="matrix(1.0,0.0,0.0,1.0,744.5625,187.14236111111111)" opacity="1.0"><path id="ProcessOnPath1072" d="M0.0 0.0L115.875 0.0L115.875 58.788185119628906L0.0 58.788185119628906Z" stroke="#99ccff" stroke-width="2.0" stroke-dasharray="none" opacity="1.0" fill="#99ccff"/><g id="ProcessOnG1073" transform="matrix(1.0,0.0,0.0,1.0,10.0,21.269092559814453)"><text id="ProcessOnText1074" fill="#000000" font-weight="normal" font-style="normal" text-decoration="blink" font-family="微软雅黑" text-anchor="middle" font-size="13" x="47.9375" y="13.325">捕捉response</text></g></g><g id="ProcessOnG1075" transform="matrix(1.0,0.0,0.0,1.0,923.0,121.0)" opacity="1.0"><path id="ProcessOnPath1076" d="M0.0 0.0L174.0 0.0L174.0 500.0L0.0 500.0Z" stroke="#323232" stroke-width="2.0" stroke-dasharray="none" opacity="1.0" fill="none"/><path id="ProcessOnPath1077" d="M0.0 0.0L174.0 0.0L174.0 30.0L0.0 30.0Z" stroke="#323232" stroke-width="2.0" stroke-dasharray="none" opacity="1.0" fill="#ffffff"/><g id="ProcessOnG1078" transform="matrix(1.0,0.0,0.0,1.0,10.0,6.875)"><text id="ProcessOnText1079" fill="#000000" font-weight="normal" font-style="normal" text-decoration="blink" font-family="微软雅黑" text-anchor="middle" font-size="13" x="77.0" y="13.325">pipeline</text></g></g><g id="ProcessOnG1080"><path id="ProcessOnPath1081" d="M802.5 245.93054623074002L802.5 296.2873193952772L802.5 296.2873193952772L802.5 333.02605857106454" stroke="#000000" stroke-width="1.0" stroke-dasharray="none" fill="none" marker-end="url(#ProcessOnMarker1082)"/></g><g id="ProcessOnG1084" transform="matrix(1.0,0.0,0.0,1.0,756.1319427490234,346.64409255981445)" opacity="1.0"><path id="ProcessOnPath1085" d="M0.0 37.35590744018555L46.36805725097656 0.0L92.73611450195312 37.35590744018555L46.36805725097656 74.7118148803711L0.0 37.35590744018555Z" stroke="#ff8000" stroke-width="2.0" stroke-dasharray="none" opacity="1.0" fill="#ff8000"/><g id="ProcessOnG1086" transform="matrix(1.0,0.0,0.0,1.0,10.0,29.230907440185547)"><text id="ProcessOnText1087" fill="#000000" font-weight="normal" font-style="normal" text-decoration="blink" font-family="微软雅黑" text-anchor="middle" font-size="13" x="36.36805725097656" y="13.325">判断状态码</text></g></g><g id="ProcessOnG1088" transform="matrix(1.0,0.0,0.0,1.0,972.5,362.5)" opacity="1.0"><path id="ProcessOnPath1089" d="M0.0 0.0L75.0 0.0L75.0 43.0L0.0 43.0Z" stroke="#99ccff" stroke-width="2.0" stroke-dasharray="none" opacity="1.0" fill="#99ccff"/><g id="ProcessOnG1090" transform="matrix(1.0,0.0,0.0,1.0,10.0,13.375)"><text id="ProcessOnText1091" fill="#000000" font-weight="normal" font-style="normal" text-decoration="blink" font-family="微软雅黑" text-anchor="middle" font-size="13" x="27.5" y="13.325">数据分类</text></g></g><g id="ProcessOnG1092" transform="matrix(1.0,0.0,0.0,1.0,974.0,541.0)" opacity="1.0"><path id="ProcessOnPath1093" d="M13.666666666666666 0.0L58.333333333333336 0.0C76.55555555555556 0.0 76.55555555555556 41.0 58.333333333333336 41.0L13.666666666666666 41.0C-4.555555555555555 41.0 -4.555555555555555 0.0 13.666666666666666 0.0Z" stroke="#4d9900" stroke-width="2.0" stroke-dasharray="none" opacity="1.0" fill="#4d9900"/><g id="ProcessOnG1094" transform="matrix(1.0,0.0,0.0,1.0,10.0,12.375)"><text id="ProcessOnText1095" fill="#000000" font-weight="normal" font-style="normal" text-decoration="blink" font-family="微软雅黑" text-anchor="middle" font-size="13" x="26.0" y="13.325">入库</text></g></g><g id="ProcessOnG1096"><path id="ProcessOnPath1097" d="M848.8680572509766 384.0L910.6840286254883 384.0L910.6840286254883 384.0L958.8819660112501 384.0" stroke="#000000" stroke-width="1.0" stroke-dasharray="none" fill="none" marker-end="url(#ProcessOnMarker1098)"/><g id="ProcessOnG1100" transform="matrix(1.0,0.0,0.0,1.0,903.8750116311134,375.875)"><path id="ProcessOnPath1101" d="M0 0H24.0V16.25H0Z" fill="#fff" transform="matrix(1.0,0.0,0.0,1.0,-12.0,0.0)"/><text id="ProcessOnText1102" fill="#000000" font-weight="normal" font-style="normal" text-decoration="blink" font-family="微软雅黑" text-anchor="middle" font-size="13" x="0.0" y="13.325">200</text></g></g><g id="ProcessOnG1103"><path id="ProcessOnPath1104" d="M1010.0 405.5L1010.0 473.25L1010.0 473.25L1010.0 527.3819660112501" stroke="#000000" stroke-width="1.0" stroke-dasharray="none" fill="none" marker-end="url(#ProcessOnMarker1105)"/></g><g id="ProcessOnG1107"><path id="ProcessOnPath1108" d="M756.1319427490234 384.0L660.6024284362793 384.0L660.6024284362793 527.3940925598145L638.308982101035 527.3940925598145" stroke="#323232" stroke-width="2.0" stroke-dasharray="none" fill="none" marker-end="url(#ProcessOnMarker1109)"/><g id="ProcessOnG1111" transform="matrix(1.0,0.0,0.0,1.0,660.6024284362793,410.9540122911573)"><path id="ProcessOnPath1112" d="M0 0H24.0V16.25H0Z" fill="#fff" transform="matrix(1.0,0.0,0.0,1.0,-12.0,0.0)"/><text id="ProcessOnText1113" fill="#000000" font-weight="normal" font-style="normal" text-decoration="blink" font-family="微软雅黑" text-anchor="middle" font-size="13" x="0.0" y="13.325">302</text></g></g><g id="ProcessOnG1114"><path id="ProcessOnPath1115" d="M564.1319427490234 489.0L564.1319427490234 453.2751736111111L564.1319427490234 453.2751736111111L564.1319427490234 432.786415199722" stroke="#323232" stroke-width="2.0" stroke-dasharray="none" fill="none" marker-end="url(#ProcessOnMarker1116)"/></g><g id="ProcessOnG1118" transform="matrix(1.0,0.0,0.0,1.0,743.5590286254883,489.0)" opacity="1.0"><path id="ProcessOnPath1119" d="M0.0 0.0L117.88194274902344 0.0L117.88194274902344 76.7881851196289L0.0 76.7881851196289Z" stroke="#99ccff" stroke-width="2.0" stroke-dasharray="none" opacity="1.0" fill="#99ccff"/><g id="ProcessOnG1120" transform="matrix(1.0,0.0,0.0,1.0,10.0,22.144092559814453)"><text id="ProcessOnText1121" fill="#000000" font-weight="normal" font-style="normal" text-decoration="blink" font-family="微软雅黑" text-anchor="middle" font-size="13" x="48.94097137451172" y="13.325">保存没有信息的</text><text id="ProcessOnText1122" fill="#000000" font-weight="normal" font-style="normal" text-decoration="blink" font-family="微软雅黑" text-anchor="middle" font-size="13" x="48.94097137451172" y="29.575">页面</text></g></g><g id="ProcessOnG1123"><path id="ProcessOnPath1124" d="M802.5 421.35590744018555L802.5 455.1779537200928L802.5 455.1779537200928L802.5 473.7639320225002" stroke="#323232" stroke-width="2.0" stroke-dasharray="none" fill="none" marker-end="url(#ProcessOnMarker1125)"/><g id="ProcessOnG1127" transform="matrix(1.0,0.0,0.0,1.0,802.5,439.4349197313429)"><path id="ProcessOnPath1128" d="M0 0H54.0V16.25H0Z" fill="#fff" transform="matrix(1.0,0.0,0.0,1.0,-27.0,0.0)"/><text id="ProcessOnText1129" fill="#000000" font-weight="normal" font-style="normal" text-decoration="blink" font-family="微软雅黑" text-anchor="middle" font-size="13" x="0.0" y="13.325">301/404</text></g></g></g></g></svg>